<?xml version="1.0" encoding="UTF-8"?>
<svg width="376px" height="376px" viewBox="0 0 376 376" version="1.1" xmlns="http://www.w3.org/2000/svg" xmlns:xlink="http://www.w3.org/1999/xlink">
    <!-- Generator: Sketch 46.1 (44463) - http://www.bohemiancoding.com/sketch -->
    <title>Group</title>
    <desc>Created with Sketch.</desc>
    <defs></defs>
    <g id="Page-1" stroke="none" stroke-width="1" fill="none" fill-rule="evenodd">
        <g id="noun_502172_cc" fill-rule="nonzero" fill="#F2F2F2">
            <g id="Group">
                <path d="M356.8,150.5 L300.5,150.5 L300.5,113 L0.5,113 L0.5,338 C0.5,358.7 17.3,375.5 38,375.5 L263,375.5 C283.7,375.5 300.5,358.7 300.5,338 L300.5,319.2 L356.8,319.2 C367.2,319.2 375.6,310.8 375.6,300.4 L375.6,169.3 C375.5,158.9 367.1,150.5 356.8,150.5 Z M113,281.8 C113,292.2 104.6,300.6 94.2,300.6 C83.8,300.6 75.4,292.2 75.4,281.8 L75.4,206.8 C75.4,196.4 83.8,188 94.2,188 C104.6,188 113,196.4 113,206.8 L113,281.8 Z M225.5,281.8 C225.5,292.2 217.1,300.6 206.7,300.6 C196.3,300.6 187.9,292.2 187.9,281.8 L187.9,206.8 C187.9,196.4 196.3,188 206.7,188 C217.1,188 225.5,196.4 225.5,206.8 L225.5,281.8 Z M338,281.8 L300.5,281.8 L300.5,188 L338,188 L338,281.8 Z" id="Shape"></path>
                <path d="M234.9,19.3 C223.8,19.3 213.1,22.4 203.5,27.7 C191.3,11 171.8,0.5 150.5,0.5 C128.9,0.5 109.4,10.8 97.4,27.6 C87.9,22.4 77.2,19.3 66.2,19.3 C33.3,19.3 6.2,43.7 1.5,75.3 L299.6,75.3 C294.9,43.7 267.8,19.3 234.9,19.3 Z" id="Shape"></path>
            </g>
        </g>
    </g>
</svg>