<?xml version="1.0" encoding="UTF-8"?>
<svg width="80px" height="80px" viewBox="0 0 80 80" version="1.1" xmlns="http://www.w3.org/2000/svg" xmlns:xlink="http://www.w3.org/1999/xlink">
    <!-- Generator: Sketch 46.1 (44463) - http://www.bohemiancoding.com/sketch -->
    <title>noun_1295781_cc</title>
    <desc>Created with Sketch.</desc>
    <defs></defs>
    <g id="Page-1" stroke="none" stroke-width="1" fill="none" fill-rule="evenodd">
        <g id="noun_1295781_cc" fill-rule="nonzero" fill="#FCFCFC">
            <path d="M76.93,36.931 L70.038,36.931 C69.427,30.905 67.034,25.399 63.398,20.944 L68.284,16.059 C69.484,14.859 69.484,12.915 68.284,11.716 C67.085,10.517 65.141,10.517 63.942,11.716 L59.056,16.601 C54.602,12.966 49.096,10.573 43.07,9.961 L43.07,3.068 C43.07,1.376 41.696,0.001 40,0 C38.304,0.001 36.929,1.376 36.929,3.069 L36.929,9.962 C30.903,10.573 25.397,12.967 20.943,16.602 L16.057,11.716 C14.859,10.517 12.915,10.517 11.715,11.716 C10.516,12.916 10.516,14.86 11.715,16.057 L16.601,20.943 C12.966,25.398 10.573,30.903 9.962,36.928 L3.069,36.928 C1.374,36.931 0,38.306 0,40 C0,41.696 1.375,43.07 3.068,43.072 L9.962,43.072 C10.574,49.097 12.967,54.602 16.602,59.056 L11.715,63.943 C10.517,65.142 10.517,67.087 11.715,68.285 C12.915,69.484 14.859,69.484 16.057,68.287 L20.945,63.399 C25.399,67.033 30.904,69.426 36.929,70.038 L36.929,76.93 C36.929,78.627 38.304,80 40,80 C41.694,80 43.069,78.627 43.069,76.931 L43.069,70.038 C49.094,69.427 54.6,67.034 59.055,63.399 L63.941,68.285 C65.141,69.484 67.085,69.484 68.284,68.285 C69.482,67.087 69.482,65.142 68.284,63.943 L63.398,59.057 C67.033,54.602 69.426,49.096 70.038,43.07 L76.93,43.07 C78.627,43.072 80,41.697 80,40 C80,38.304 78.625,36.929 76.93,36.931 Z M21.097,25.44 L28.553,32.896 C27.789,34.125 27.217,35.48 26.879,36.93 L16.329,36.93 C16.882,32.641 18.575,28.707 21.097,25.44 Z M16.329,43.072 L26.88,43.072 C27.218,44.521 27.79,45.878 28.553,47.105 L21.097,54.56 C18.576,51.294 16.883,47.36 16.329,43.072 Z M36.929,63.671 C32.641,63.117 28.708,61.425 25.441,58.903 L32.897,51.448 C34.125,52.21 35.48,52.782 36.929,53.121 L36.929,63.671 Z M36.929,26.879 C35.48,27.218 34.123,27.79 32.895,28.553 L25.439,21.097 C28.706,18.575 32.641,16.882 36.929,16.328 L36.929,26.879 Z M43.07,16.329 C47.359,16.882 51.294,18.576 54.56,21.098 L47.105,28.554 C45.877,27.79 44.52,27.219 43.07,26.88 L43.07,16.329 L43.07,16.329 Z M43.069,63.671 L43.069,53.121 C44.518,52.784 45.875,52.212 47.103,51.448 L54.558,58.903 C51.292,61.425 47.358,63.118 43.069,63.671 Z M58.901,54.561 L51.446,47.106 C52.21,45.878 52.782,44.521 53.121,43.071 L63.671,43.071 C63.117,47.359 61.424,51.294 58.901,54.561 Z M53.121,36.931 C52.784,35.481 52.212,34.124 51.446,32.896 L58.902,25.44 C61.424,28.707 63.118,32.642 63.671,36.931 L53.121,36.931 Z" id="Shape"></path>
        </g>
    </g>
</svg>